<svg width="548" height="48" viewBox="0 0 548 48" fill="none" xmlns="http://www.w3.org/2000/svg">
<path fill-rule="evenodd" clip-rule="evenodd" d="M15.154 43.0732C15.154 45.1892 15.768 45.5972 17.134 45.9402L19.25 46.4182V47.3742H5.188V46.4182L6.963 46.0102C8.328 45.6692 8.943 44.9842 8.943 43.0752V1.70624H7.441C3.209 1.70624 1.502 8.60124 1.024 15.9052H0V0.342244H24.096V15.9052H23.072C22.594 8.60224 20.888 1.70724 16.656 1.70724H15.154V43.0732ZM25.598 46.4182L27.1 46.0082C28.466 45.6672 29.08 44.9842 29.08 43.0732V4.57424C29.08 2.66224 28.466 2.04824 27.1 1.70624L25.598 1.29724V0.341244H38.909V1.29724L37.339 1.70624C36.042 2.04824 35.291 2.59424 35.291 4.50524V22.4582H45.599V4.50524C45.599 2.59424 44.848 2.04824 43.551 1.70624L41.981 1.29724V0.341244H55.292V1.29724L53.79 1.70624C52.426 2.04824 51.811 2.66224 51.811 4.57424V43.0052C51.811 44.9162 52.426 45.6692 53.79 46.0102L55.292 46.4182V47.3742H41.981V46.4182L43.551 46.0782C44.847 45.7372 45.598 44.9852 45.598 43.0752V24.0282H35.291V43.0732C35.291 44.9842 36.042 45.7352 37.339 46.0762L38.909 46.4182V47.3722H25.598V46.4182ZM66.487 46.0092H71.197C77.34 46.0092 78.501 39.0462 79.32 31.8112H80.344V47.3722H56.794V46.4182L58.296 46.0092C59.661 45.6672 60.275 44.9842 60.275 43.0742V4.64224C60.275 2.73124 59.661 2.04824 58.296 1.70624L56.794 1.29724V0.341244H79.661V15.9052H78.637C77.886 8.60124 76.453 1.70624 71.197 1.70624H66.487V22.2532L68.671 22.1852C71.606 21.9802 72.698 19.4542 73.449 13.5152H74.473V32.4912H73.449C72.835 25.0512 71.674 23.8902 68.603 23.6852L66.487 23.6172V46.0092ZM94.939 6.62224C94.051 2.59524 93.505 1.98024 92.209 1.63824L90.912 1.29724V0.341244H103.677V1.29724L102.653 1.50124C100.468 1.97924 100.673 4.16424 101.287 7.09924L106.68 33.8572L110.639 12.5592L109.206 5.25524C108.66 2.66124 108.455 1.84224 107.09 1.50124L106.202 1.29624V0.340244H118.695V1.29624L117.193 1.56924C114.94 1.97924 115.281 4.43624 115.827 7.09824L121.015 33.8582L126.135 8.53224C127.09 3.27624 126.613 1.97924 124.565 1.57024L123.132 1.29724V0.341244H132.483V1.29724L131.187 1.63824C129.548 2.04824 129.139 3.34524 128.183 7.91824L119.855 47.6472H118.08L111.664 16.6562L105.861 47.6472H103.608L94.939 6.62224ZM161.699 46.0092H164.429C170.231 46.0092 171.938 39.1122 172.62 31.8112H173.644V47.3722H138.763V46.4182L140.196 46.1432C143.131 45.5992 143.131 44.7802 142.38 40.6822L141.083 34.5392H132.687L131.8 39.1822C130.776 44.4382 131.322 45.7342 133.37 46.1432L134.803 46.4182V47.3722H125.315V46.4182L126.476 46.0772C128.318 45.5312 128.796 44.4382 129.752 39.7962L138.08 0.0672441H140.128L148.865 41.0922C149.753 45.3252 150.162 46.2112 152.619 46.2112C154.735 46.2112 155.486 45.1182 155.486 43.0722V4.57324C155.486 2.66224 154.872 2.04724 153.507 1.70624L152.005 1.29624V0.341244H165.521V1.36524L163.677 1.77424C162.313 2.04724 161.698 2.66224 161.698 4.57324L161.699 46.0092ZM132.961 32.9702H140.743L136.783 13.5852L132.961 32.9702ZM184.839 46.0092H187.57C193.372 46.0092 195.079 39.1122 195.761 31.8112H196.785V47.3722H175.146V46.4182L176.648 46.0092C178.014 45.6672 178.628 44.9842 178.628 43.0742V4.57424C178.628 2.66224 178.014 2.04824 176.648 1.70624L175.146 1.29724V0.341244H188.662V1.36524L186.819 1.77424C185.454 2.04724 184.839 2.66224 184.839 4.57324V46.0092ZM219.044 47.6452C215.085 47.6452 213.72 44.9162 212.424 44.9162C211.673 44.9162 210.785 45.1212 210.103 47.3742H209.284V31.8092H210.308C211.127 40.6152 214.404 46.1432 218.977 46.1432C222.049 46.1432 224.165 43.3442 224.165 38.2932C224.165 27.6442 208.943 23.0712 208.943 11.2612C208.943 4.91324 212.22 0.0662441 218.022 0.0662441C221.776 0.0662441 222.595 2.52324 224.165 2.52324C225.053 2.52324 225.667 1.84124 226.008 0.339244H226.827V15.9032H225.803C224.984 8.05324 222.868 1.56824 217.952 1.56824C214.54 1.56824 213.857 4.98024 213.857 7.30224C213.857 17.4732 229.079 20.9542 229.079 35.1522C229.077 42.3912 225.118 47.6452 219.044 47.6452ZM244.163 43.0732C244.163 44.9842 244.778 45.6672 246.143 46.0082L247.918 46.4182V47.3722H234.198V46.4182L235.973 46.0082C237.338 45.6672 237.953 44.9842 237.953 43.0732V1.70624H236.451C232.219 1.70624 230.512 8.60124 230.034 15.9052H229.01V0.342244H253.108V15.9052H252.083C251.605 8.60224 249.9 1.70724 245.667 1.70724H244.165V43.0732H244.163ZM254.608 46.4182L256.11 46.0082C257.475 45.6672 258.089 44.9842 258.089 43.0732V4.57424C258.089 2.66224 257.475 2.04824 256.11 1.70624L254.608 1.29724V0.341244H267.646C273.448 0.341244 278.841 4.02724 278.841 11.7402C278.841 17.6802 276.042 21.8442 270.376 23.3462C276.588 24.5052 276.588 27.4422 277.202 35.2902L277.612 41.2972C277.817 44.6422 277.953 45.3942 278.909 45.3942C279.933 45.3942 280.343 43.0742 280.343 40.8212V39.6602H281.503V41.2302C281.503 44.9842 280.683 47.6462 276.794 47.6462C272.97 47.6462 271.196 45.4622 270.922 37.6132L270.581 28.8752C270.445 24.7112 269.421 24.0972 267.441 24.0972H264.233V43.0742C264.233 44.9842 264.847 45.7362 266.213 46.0772L267.715 46.4182V47.3722H254.608V46.4182ZM264.232 22.7312H266.485C270.308 22.7312 272.219 21.7072 272.219 12.6292C272.219 3.55024 269.693 1.70724 266.963 1.70724H264.233L264.232 22.7312ZM291.605 46.0092H296.314C302.457 46.0092 303.62 39.0462 304.437 31.8112H305.461V47.3722H281.911V46.4182L283.413 46.0092C284.778 45.6672 285.392 44.9842 285.392 43.0742V4.64224C285.392 2.73124 284.778 2.04824 283.413 1.70624L281.911 1.29724V0.341244H304.779V15.9052H303.755C303.006 8.60124 301.571 1.70624 296.314 1.70624H291.605V22.2532L293.789 22.1852C296.723 21.9802 297.817 19.4542 298.567 13.5152H299.592V32.4912H298.567C297.952 25.0512 296.793 23.8902 293.719 23.6852L291.605 23.6172V46.0092ZM316.931 46.0092H321.641C327.782 46.0092 328.945 39.0462 329.762 31.8112H330.786V47.3722H307.237V46.4182L308.739 46.0092C310.104 45.6672 310.719 44.9842 310.719 43.0742V4.64224C310.719 2.73124 310.104 2.04824 308.739 1.70624L307.237 1.29724V0.341244H330.105V15.9052H329.081C328.33 8.60124 326.897 1.70624 321.641 1.70624H316.931V22.2532L319.115 22.1852C322.049 21.9802 323.142 19.4542 323.893 13.5152H324.917V32.4912H323.893C323.278 25.0512 322.118 23.8902 319.046 23.6852L316.931 23.6172V46.0092ZM347.444 43.0732C347.444 45.1892 348.059 45.5972 349.423 45.9402L351.539 46.4182V47.3742H337.477V46.4182L339.252 46.0102C340.615 45.6692 341.232 44.9842 341.232 43.0752V1.70624H339.73C335.497 1.70624 333.791 8.60124 333.313 15.9052H332.289V0.342244H356.386V15.9052H355.362C354.883 8.60224 353.178 1.70724 348.946 1.70724H347.444V43.0732ZM384.924 36.5202C384.924 43.8252 381.235 47.6452 375.572 47.6452C370.454 47.6452 367.451 43.4822 367.517 38.9092C367.586 35.3602 370.18 33.5862 372.295 33.8582C373.797 34.0622 375.299 35.1552 375.094 37.5442C374.889 40.9572 371.202 40.8212 371.066 42.9372C370.931 44.2342 372.636 46.1452 374.819 46.1452C378.643 46.1452 378.643 41.2982 378.643 37.6132V4.50524C378.643 2.59424 378.027 2.04824 376.528 1.70624L374.821 1.29724V0.341244H388.27V1.29724L386.768 1.70624C385.403 2.04824 384.925 2.66224 384.925 4.57424L384.924 36.5202ZM400.829 47.7152C392.843 47.7152 388.951 36.9302 388.951 23.8222C388.951 10.7852 392.706 0.000244141 400.829 0.000244141C408.884 0.000244141 412.775 10.7852 412.775 23.8222C412.775 36.9302 409.089 47.7152 400.829 47.7152ZM400.829 1.57024C397.416 1.57024 395.711 4.30025 395.711 23.5512C395.711 43.4142 397.279 46.2132 400.829 46.2132C404.378 46.2132 406.017 43.4142 406.017 23.4132C406.017 4.30124 404.378 1.57024 400.829 1.57024ZM439.806 46.4182L441.308 46.0082C442.673 45.6672 443.288 44.9842 443.288 43.0732V4.57424C443.288 2.32124 442.264 1.50224 439.874 1.50224C436.871 1.50224 436.12 2.86724 436.12 6.75824V36.3842C436.12 43.7562 433.526 47.7152 427.179 47.7152C420.626 47.7152 416.804 43.7562 416.804 36.5892V4.57424C416.804 2.66224 416.326 2.04824 414.961 1.70624L413.459 1.29724V0.341244H427.043V1.29724L425.199 1.70624C423.698 2.04824 423.084 2.59424 423.084 4.50524V37.0662C423.084 43.6872 424.994 45.3942 428.476 45.3942C432.573 45.3942 434.279 43.0732 434.279 36.3832V9.21524C434.279 3.48124 434.21 2.11624 431.754 1.57024L430.457 1.29724V0.341244H452.847C458.649 0.341244 464.042 4.02724 464.042 11.7402C464.042 17.6802 461.243 21.8442 455.577 23.3462C461.789 24.5052 461.789 27.4422 462.403 35.2902L462.813 41.2972C463.018 44.6422 463.153 45.3942 464.11 45.3942C465.134 45.3942 465.544 43.0742 465.544 40.8212V39.6602H466.704V41.2302C466.704 44.9842 465.885 47.6462 461.995 47.6462C458.172 47.6462 456.397 45.4622 456.123 37.6132L455.782 28.8752C455.646 24.7112 454.622 24.0972 452.643 24.0972H449.435V43.0742C449.435 44.9842 450.048 45.7362 451.414 46.0772L452.916 46.4182V47.3722H439.808V46.4182H439.806ZM449.431 22.7312H451.684C455.506 22.7312 457.417 21.7072 457.417 12.6292C457.417 3.55024 454.892 1.70724 452.161 1.70724H449.431V22.7312ZM467.93 1.57024L466.975 1.29724V0.341244H475.916L488.135 31.3312V9.01024C488.135 3.95924 488.271 2.18424 484.654 1.57024L483.494 1.29724V0.341244H493.597V1.29724L492.642 1.57024C489.707 2.25224 489.912 4.64224 489.912 9.42024V47.3732H487.728L472.437 9.76224V38.7042C472.437 44.2332 472.437 45.8052 476.805 46.4182V47.3722H466.974V46.4182L468.204 46.2132C470.728 45.7332 470.662 43.2772 470.662 38.2952V5.66624C469.5 3.27724 469.022 1.97924 467.93 1.57024ZM528 46.0092H530.73C536.532 46.0092 538.239 39.1122 538.922 31.8112H539.946V47.3722H505.133V46.4182L506.566 46.1432C509.501 45.5992 509.57 44.7802 508.75 40.6822L507.453 34.5392H499.058L498.168 39.1822C497.144 44.4382 497.691 45.7342 499.739 46.1432L501.172 46.4182V47.3722H491.683V46.4182L492.843 46.0772C494.687 45.5312 495.163 44.4382 496.12 39.7962L504.447 0.0682441H506.497L515.232 41.0932C516.122 45.3262 516.461 46.2112 518.92 46.2112C521.034 46.2112 521.787 45.1192 521.787 43.0732V4.57324C521.787 2.66224 521.173 2.04724 519.808 1.70624L518.306 1.29624V0.341244H531.822V1.36524L529.979 1.77424C528.614 2.04724 527.999 2.66224 527.999 4.57324L528 46.0092ZM499.33 32.9702H507.112L503.153 13.5842L499.33 32.9702ZM548 44.3692C548 46.2132 546.636 47.5782 544.997 47.5782C543.359 47.5782 541.993 46.2132 541.993 44.3692C541.993 42.5262 543.359 41.1612 544.997 41.1612C546.636 41.1612 548 42.5272 548 44.3692Z" fill="black"/>
</svg>
